<svg width="554" height="70" xmlns="http://www.w3.org/2000/svg" xmlns:xlink="http://www.w3.org/1999/xlink"><defs><path id="a" d="M.53 69.213h68.647V.505H.529z"/></defs><g fill="none" fill-rule="evenodd"><path fill="#FFF" d="M0 6.962v57.16h8.972V40.528H20.56v-8.165H8.972V15.13H23.74V6.962zM28.065 64.123h8.978V6.962h-8.978zM55.886 32.276h12.566v18.127c0 9.15-4.57 14.376-13.38 14.376-8.812 0-13.38-5.226-13.38-14.376V20.682c0-9.145 4.568-14.372 13.38-14.372 8.81 0 13.38 5.227 13.38 14.372v5.554h-8.484V20.11c0-4.082-1.796-5.635-4.652-5.635-2.855 0-4.651 1.553-4.651 5.635V50.98c0 4.08 1.796 5.55 4.65 5.55 2.857 0 4.653-1.47 4.653-5.55V40.44h-4.082v-8.164zM82.201 64.123h-8.975V6.962H82.2v24.5H92.4v-24.5h9.136v57.16H92.4V39.629H82.2zM106.312 6.962h27.74v8.168h-9.381v48.993h-8.976V15.13h-9.383zM292.484 32.3h11.583v8.16h-11.583v23.603h-8.975V6.902h23.742v8.167h-14.767zM320.877 6.901V51c0 4.08 1.796 5.55 4.652 5.55 2.855 0 4.648-1.47 4.648-5.55V6.901h8.484v43.522c0 9.145-4.565 14.376-13.377 14.376-8.811 0-13.381-5.23-13.381-14.376V6.901h8.974zM343.398 6.901h27.74v8.168h-9.383v48.993h-8.973V15.07h-9.384zM384.846 6.901V51c0 4.08 1.794 5.55 4.649 5.55s4.652-1.47 4.652-5.55V6.901h8.485v43.522c0 9.145-4.57 14.376-13.38 14.376-8.813 0-13.38-5.23-13.38-14.376V6.901h8.974zM416.254 15.07v17.554h3.51c3.346 0 5.385-1.47 5.385-6.04V20.95c0-4.085-1.388-5.88-4.572-5.88h-4.323zm9.792 48.992c-.489-1.47-.814-2.368-.814-7.024v-8.983c0-5.307-1.793-7.266-5.876-7.266h-3.102v23.273h-8.97V6.902h13.541c9.3 0 13.298 4.327 13.298 13.148v4.49c0 5.88-1.876 9.72-5.872 11.593 4.485 1.879 5.953 6.206 5.953 12.17v8.816c0 2.778.081 4.823.979 6.943h-9.137zM447.768 30.99h12.322v8.168h-12.322v16.739h15.5v8.166h-24.473V6.902h24.474v8.167h-15.501zM146.475 6.937h13.849v4.438h-8.627v20.83h8.228v4.433h-8.228v27.485h-5.222zM170.177 54.776c0 3.166.633 5.383 3.957 5.383 3.323 0 3.956-2.217 3.956-5.383V16.283c0-3.165-.633-5.385-3.956-5.385-3.324 0-3.957 2.22-3.957 5.385v38.493zm-5.222-38.65c0-5.624 2.137-9.664 9.18-9.664 7.043 0 9.18 4.04 9.18 9.665v38.806c0 5.625-2.137 9.665-9.18 9.665-7.043 0-9.18-4.04-9.18-9.665V16.127zM196.648 32.205c2.453 0 3.875-.712 3.875-4.12V15.253c0-3.326-1.74-3.879-4.43-3.879h-2.926v20.83h3.481zm4.115 7.918c0-2.773-1.662-3.485-4.115-3.485h-3.481v27.485h-5.227V6.937h9.737c4.985 0 8.067.873 8.067 6.574v14.495c0 4.436-1.66 5.94-5.696 6.178v.157c3.719.24 5.936 1.348 5.936 5.306v24.476h-5.221v-24zM218.382 11.502h-5.837V7.078h16.876v4.424h-5.837v52.57h-5.202zM247.172 7.078h5.204v56.994h-5.204V36.68h-7.807v27.393h-5.207V7.078h5.207V32.26h7.807zM257.022 7.078h13.803v4.424h-8.597V32.26h8.204v4.419h-8.204v22.975h8.597v4.418h-13.803z"/><g transform="translate(484.062 .282)"><mask id="b" fill="#fff"><use xlink:href="#a"/></mask><path d="M53.295 31.738c-.471 6.037-5.024 13.48-18.334 22.822-13.308-9.342-17.857-16.785-18.328-22.822v-2.097c.504-6.307 4.657-9.6 8.249-9.948.592-.06 1.145-.086 1.66-.086 4.15 0 6.141 1.793 8.42 4.514 2.28-2.721 4.268-4.514 8.415-4.514.522 0 1.075.025 1.665.086 3.592.348 7.743 3.64 8.253 9.948v2.097zM34.855.504C15.9.504.53 15.885.53 34.856c0 18.976 15.37 34.358 34.326 34.358 18.955 0 34.322-15.382 34.322-34.358C69.177 15.886 53.81.504 34.855.504z" fill="#EC3332" mask="url(#b)"/></g><path d="M529.104 19.975a16.25 16.25 0 0 0-1.665-.086c-4.147 0-6.134 1.792-8.415 4.514-2.278-2.722-4.27-4.514-8.42-4.514-.514 0-1.067.025-1.66.086-3.592.348-7.744 3.64-8.249 9.947v2.098c.473 6.037 5.02 13.48 18.33 22.822 13.308-9.342 17.861-16.785 18.333-22.822v-2.098c-.51-6.307-4.662-9.599-8.254-9.947" fill="#FFF"/></g></svg>